<svg width="970" height="899" viewBox="0 0 970 899" fill="none" xmlns="http://www.w3.org/2000/svg">
<g filter="url(#filter0_dddd_7_221)">
<path d="M417.751 23.908L437.78 22.0409C463.717 19.6231 489.809 19.3529 515.79 21.2331L525.137 21.9096C543.519 23.2398 561.768 26.0065 579.717 30.1844L593.151 33.3112C604.861 36.0368 616.302 39.8112 627.335 44.5885L692.396 72.7592C702.185 76.9978 709.76 85.1315 713.292 95.1973C716.178 103.423 721.788 110.417 729.192 115.019L746 125.468C751.817 129.084 757.224 133.322 762.124 138.107L797.251 172.408C819.164 197.309 837.855 224.87 852.882 254.44L861.251 270.908L875.251 306.408L890.751 367.908L891.487 374.318C895.648 410.578 895.401 447.208 890.751 483.408L915.251 488.908L923.251 507.408L942.251 511.908L945.751 537.908L946.537 544.977C954.923 620.456 947.678 696.852 925.251 769.408L921.751 784.408H899.251L893.251 794.908L802.751 779.908L807.251 769.408L776.751 758.908L807.251 495.908H818.751L824.251 478.908H858.251V414.908L851.251 356.408L843.485 326.95C839.003 309.949 833.17 293.334 826.04 277.262L823.707 272.003C812.79 247.394 798.488 224.43 781.217 203.779L768.959 189.123C763.835 182.997 758.069 177.439 751.759 172.545L728.646 154.616C715.49 144.411 698.26 140.834 682.251 145.408C681.571 145.602 679.323 144.797 676.104 143.35C648.392 130.892 621.174 117.216 592.251 107.908L533.251 94.408C501.322 91.4145 469.181 91.4145 437.251 94.408L378.251 107.908C349.329 117.216 322.111 130.892 294.399 143.35C291.18 144.797 288.932 145.602 288.251 145.408C272.243 140.834 255.013 144.411 241.857 154.616L218.744 172.545C212.434 177.439 206.668 182.997 201.544 189.123L189.286 203.779C172.014 224.43 157.713 247.394 146.796 272.003L144.463 277.262C137.333 293.334 131.5 309.949 127.018 326.95L119.251 356.408L112.251 414.908V478.908H146.251L151.751 495.908H163.251L193.751 758.908L163.251 769.408L167.751 779.908L77.2515 794.908L71.2515 784.408H48.7515L45.2515 769.408C22.8109 696.806 14.3414 620.345 23.8486 544.951C24.1516 542.548 24.4529 540.197 24.7515 537.908C26.0768 527.749 28.2515 511.908 28.2515 511.908L47.2515 507.408L55.2515 488.908L79.7515 483.408C75.1019 447.208 74.8549 410.578 79.0158 374.318L79.7515 367.908L95.2515 306.408L109.251 270.908L117.621 254.44C132.648 224.87 151.339 197.309 173.251 172.408L208.379 138.107C213.279 133.322 218.686 129.084 224.503 125.468L241.311 115.019C248.715 110.417 254.325 103.423 257.211 95.1973C260.743 85.1315 268.318 76.9978 278.107 72.7592L343.168 44.5885C354.201 39.8112 365.642 36.0368 377.352 33.3112L417.751 23.908Z" fill="#3A3A3A"/>
<path d="M417.751 23.908L437.78 22.0409C463.717 19.6231 489.809 19.3529 515.79 21.2331L525.137 21.9096C543.519 23.2398 561.768 26.0065 579.717 30.1844L593.151 33.3112C604.861 36.0368 616.302 39.8112 627.335 44.5885L692.396 72.7592C702.185 76.9978 709.76 85.1315 713.292 95.1973C716.178 103.423 721.788 110.417 729.192 115.019L746 125.468C751.817 129.084 757.224 133.322 762.124 138.107L797.251 172.408C819.164 197.309 837.855 224.87 852.882 254.44L861.251 270.908L875.251 306.408L890.751 367.908L891.487 374.318C895.648 410.578 895.401 447.208 890.751 483.408L915.251 488.908L923.251 507.408L942.251 511.908L945.751 537.908L946.537 544.977C954.923 620.456 947.678 696.852 925.251 769.408L921.751 784.408H899.251L893.251 794.908L802.751 779.908L807.251 769.408L776.751 758.908L807.251 495.908H818.751L824.251 478.908H858.251V414.908L851.251 356.408L843.485 326.95C839.003 309.949 833.17 293.334 826.04 277.262L823.707 272.003C812.79 247.394 798.488 224.43 781.217 203.779L768.959 189.123C763.835 182.997 758.069 177.439 751.759 172.545L728.646 154.616C715.49 144.411 698.26 140.834 682.251 145.408C681.571 145.602 679.323 144.797 676.104 143.35C648.392 130.892 621.174 117.216 592.251 107.908L533.251 94.408C501.322 91.4145 469.181 91.4145 437.251 94.408L378.251 107.908C349.329 117.216 322.111 130.892 294.399 143.35C291.18 144.797 288.932 145.602 288.251 145.408C272.243 140.834 255.013 144.411 241.857 154.616L218.744 172.545C212.434 177.439 206.668 182.997 201.544 189.123L189.286 203.779C172.014 224.43 157.713 247.394 146.796 272.003L144.463 277.262C137.333 293.334 131.5 309.949 127.018 326.95L119.251 356.408L112.251 414.908V478.908H146.251L151.751 495.908H163.251L193.751 758.908L163.251 769.408L167.751 779.908L77.2515 794.908L71.2515 784.408H48.7515L45.2515 769.408C22.8109 696.806 14.3414 620.345 23.8486 544.951C24.1516 542.548 24.4529 540.197 24.7515 537.908C26.0768 527.749 28.2515 511.908 28.2515 511.908L47.2515 507.408L55.2515 488.908L79.7515 483.408C75.1019 447.208 74.8549 410.578 79.0158 374.318L79.7515 367.908L95.2515 306.408L109.251 270.908L117.621 254.44C132.648 224.87 151.339 197.309 173.251 172.408L208.379 138.107C213.279 133.322 218.686 129.084 224.503 125.468L241.311 115.019C248.715 110.417 254.325 103.423 257.211 95.1973C260.743 85.1315 268.318 76.9978 278.107 72.7592L343.168 44.5885C354.201 39.8112 365.642 36.0368 377.352 33.3112L417.751 23.908Z" stroke="#282828" stroke-width="10"/>
</g>
<g filter="url(#filter1_i_7_221)">
<path d="M658.518 186.665L649.245 180.538C634.323 170.677 618.434 162.363 601.826 155.723C570.737 143.294 537.563 136.908 504.081 136.908H484.751H465.422C431.94 136.908 398.766 143.294 367.677 155.723C351.069 162.363 335.18 170.677 320.258 180.538L310.985 186.665C295.829 196.681 281.426 207.793 267.893 219.913L262.024 225.168C249.493 236.39 237.81 248.761 227.302 261.896C211.944 281.092 198.796 302.388 188.546 324.733C178.816 345.943 171.558 368.312 167.004 391.199L164.811 402.223C162.444 414.12 161.251 426.222 161.251 438.352L188.716 467.153L204.925 637.556L215.281 643.316L222.034 649.556V673.544C222.034 675.659 221.01 677.644 219.286 678.87C218.429 679.478 217.732 680.284 217.254 681.22L216.351 682.984C215.648 684.359 215.281 685.882 215.281 687.427C215.281 689.035 214.883 690.618 214.124 692.035L211.339 697.231C210.38 699.02 209.878 701.019 209.878 703.049C209.878 705.715 210.743 708.309 212.343 710.442L212.579 710.757C214.333 713.093 215.281 715.936 215.281 718.858V719.119C215.281 721.041 215.704 722.939 216.52 724.679L216.668 724.995C217.529 726.832 218.851 728.415 220.505 729.59C221.518 730.31 222.639 730.865 223.826 731.234L311.475 758.507C314.514 759.453 317.764 759.478 320.818 758.58L325.815 757.111C327.922 756.491 330.2 756.977 331.871 758.402L332.404 758.856C333.237 759.567 334.296 759.957 335.392 759.957C337.115 759.957 338.694 760.919 339.484 762.451L343.15 769.557C346.4 775.543 348.103 782.245 348.103 789.056V857.908L482.751 892.908L621.4 857.908V789.056C621.4 782.245 623.103 775.543 626.353 769.557L630.019 762.451C630.809 760.919 632.388 759.957 634.111 759.957C635.207 759.957 636.266 759.567 637.099 758.856L637.632 758.402C639.303 756.977 641.581 756.491 643.688 757.111L648.685 758.58C651.739 759.478 654.989 759.453 658.028 758.507L745.677 731.234C746.864 730.865 747.985 730.31 748.998 729.59C750.652 728.415 751.973 726.832 752.835 724.995L752.983 724.679C753.799 722.939 754.222 721.04 754.222 719.119V718.858C754.222 715.936 755.17 713.093 756.924 710.757L757.16 710.442C758.76 708.309 759.625 705.715 759.625 703.049C759.625 701.019 759.123 699.02 758.164 697.231L755.379 692.035C754.62 690.618 754.222 689.035 754.222 687.427C754.222 685.882 753.855 684.359 753.152 682.984L752.249 681.22C751.771 680.284 751.074 679.478 750.217 678.87C748.493 677.644 747.469 675.659 747.469 673.544V649.556L754.222 643.316L764.578 637.556L780.787 467.153L808.251 438.352C808.251 426.222 807.059 414.12 804.692 402.223L802.499 391.199C797.945 368.312 790.687 345.943 780.957 324.733C770.707 302.388 757.559 281.092 742.201 261.896C731.693 248.761 720.01 236.39 707.479 225.168L701.61 219.913C688.077 207.793 673.674 196.681 658.518 186.665Z" fill="url(#paint0_linear_7_221)"/>
</g>
<path d="M658.518 186.665L649.245 180.538C634.323 170.677 618.434 162.363 601.826 155.723C570.737 143.294 537.563 136.908 504.081 136.908H484.751H465.422C431.94 136.908 398.766 143.294 367.677 155.723C351.069 162.363 335.18 170.677 320.258 180.538L310.985 186.665C295.829 196.681 281.426 207.793 267.893 219.913L262.024 225.168C249.493 236.39 237.81 248.761 227.302 261.896C211.944 281.092 198.796 302.388 188.546 324.733C178.816 345.943 171.558 368.312 167.004 391.199L164.811 402.223C162.444 414.12 161.251 426.222 161.251 438.352L188.716 467.153L204.925 637.556L215.281 643.316L222.034 649.556V673.544C222.034 675.659 221.01 677.644 219.286 678.87C218.429 679.478 217.732 680.284 217.254 681.22L216.351 682.984C215.648 684.359 215.281 685.882 215.281 687.427C215.281 689.035 214.883 690.618 214.124 692.035L211.339 697.231C210.38 699.02 209.878 701.019 209.878 703.049C209.878 705.715 210.743 708.309 212.343 710.442L212.579 710.757C214.333 713.093 215.281 715.936 215.281 718.858V719.119C215.281 721.041 215.704 722.939 216.52 724.679L216.668 724.995C217.529 726.832 218.851 728.415 220.505 729.59C221.518 730.31 222.639 730.865 223.826 731.234L311.475 758.507C314.514 759.453 317.764 759.478 320.818 758.58L325.815 757.111C327.922 756.491 330.2 756.977 331.871 758.402L332.404 758.856C333.237 759.567 334.296 759.957 335.392 759.957C337.115 759.957 338.694 760.919 339.484 762.451L343.15 769.557C346.4 775.543 348.103 782.245 348.103 789.056V857.908L482.751 892.908L621.4 857.908V789.056C621.4 782.245 623.103 775.543 626.353 769.557L630.019 762.451C630.809 760.919 632.388 759.957 634.111 759.957C635.207 759.957 636.266 759.567 637.099 758.856L637.632 758.402C639.303 756.977 641.581 756.491 643.688 757.111L648.685 758.58C651.739 759.478 654.989 759.453 658.028 758.507L745.677 731.234C746.864 730.865 747.985 730.31 748.998 729.59C750.652 728.415 751.973 726.832 752.835 724.995L752.983 724.679C753.799 722.939 754.222 721.04 754.222 719.119V718.858C754.222 715.936 755.17 713.093 756.924 710.757L757.16 710.442C758.76 708.309 759.625 705.715 759.625 703.049C759.625 701.019 759.123 699.02 758.164 697.231L755.379 692.035C754.62 690.618 754.222 689.035 754.222 687.427C754.222 685.882 753.855 684.359 753.152 682.984L752.249 681.22C751.771 680.284 751.074 679.478 750.217 678.87C748.493 677.644 747.469 675.659 747.469 673.544V649.556L754.222 643.316L764.578 637.556L780.787 467.153L808.251 438.352C808.251 426.222 807.059 414.12 804.692 402.223L802.499 391.199C797.945 368.312 790.687 345.943 780.957 324.733C770.707 302.388 757.559 281.092 742.201 261.896C731.693 248.761 720.01 236.39 707.479 225.168L701.61 219.913C688.077 207.793 673.674 196.681 658.518 186.665Z" stroke="#003C62" stroke-width="10"/>
<path d="M484.251 814.908V892.908M534.251 805.908V882.908M579.251 795.908V873.908M436.251 805.908V882.908M391.251 795.908V873.908" stroke="#003C62" stroke-width="10"/>
<g filter="url(#filter2_i_7_221)">
<path d="M595.759 509.5L644.877 501.485C659.003 499.18 673.486 502.104 685.611 509.709C702.767 520.469 713.183 539.297 713.183 559.548V575.39C713.183 608.8 694.151 639.291 664.137 653.967L662.055 654.986C643.777 663.923 623.036 666.49 603.131 662.279L561.063 653.38C532.226 647.28 511.596 621.829 511.596 592.354C511.596 575.385 518.51 559.147 530.743 547.387L542.391 536.189C557.062 522.086 575.675 512.778 595.759 509.5Z" fill="#00FFBD"/>
</g>
<path d="M595.759 509.5L644.877 501.485C659.003 499.18 673.486 502.104 685.611 509.709C702.767 520.469 713.183 539.297 713.183 559.548V575.39C713.183 608.8 694.151 639.291 664.137 653.967L662.055 654.986C643.777 663.923 623.036 666.49 603.131 662.279L561.063 653.38C532.226 647.28 511.596 621.829 511.596 592.354C511.596 575.385 518.51 559.147 530.743 547.387L542.391 536.189C557.062 522.086 575.675 512.778 595.759 509.5Z" stroke="#006249" stroke-width="10"/>
<g filter="url(#filter3_i_7_221)">
<path d="M484.251 734.723V663.219C484.251 655.554 494.798 653.463 497.722 660.548L530.861 740.848C533.071 746.202 528.193 751.769 522.595 750.284L489.456 741.489C486.388 740.675 484.251 737.898 484.251 734.723Z" fill="#0B476C"/>
</g>
<path d="M484.251 734.723V663.219C484.251 655.554 494.798 653.463 497.722 660.548L530.861 740.848C533.071 746.202 528.193 751.769 522.595 750.284L489.456 741.489C486.388 740.675 484.251 737.898 484.251 734.723Z" stroke="#082D45" stroke-width="10"/>
<g filter="url(#filter4_i_7_221)">
<path d="M373.675 509.5L324.558 501.485C310.431 499.18 295.949 502.104 283.823 509.709C266.667 520.469 256.251 539.297 256.251 559.548V575.39C256.251 608.8 275.284 639.291 305.297 653.967L307.38 654.986C325.657 663.923 346.399 666.49 366.304 662.279L408.372 653.38C437.208 647.28 457.839 621.829 457.839 592.354C457.839 575.385 450.925 559.147 438.691 547.387L427.043 536.189C412.373 522.086 393.76 512.778 373.675 509.5Z" fill="#00FFBD"/>
</g>
<path d="M373.675 509.5L324.558 501.485C310.431 499.18 295.949 502.104 283.823 509.709C266.667 520.469 256.251 539.297 256.251 559.548V575.39C256.251 608.8 275.284 639.291 305.297 653.967L307.38 654.986C325.657 663.923 346.399 666.49 366.304 662.279L408.372 653.38C437.208 647.28 457.839 621.829 457.839 592.354C457.839 575.385 450.925 559.147 438.691 547.387L427.043 536.189C412.373 522.086 393.76 512.778 373.675 509.5Z" stroke="#006249" stroke-width="10"/>
<g filter="url(#filter5_i_7_221)">
<path d="M484.251 734.75V663.859C484.251 656.168 473.649 654.103 470.763 661.233L438.54 740.843C436.369 746.206 441.272 751.738 446.857 750.227L479.08 741.507C482.132 740.681 484.251 737.912 484.251 734.75Z" fill="#0B476C"/>
</g>
<path d="M484.251 734.75V663.859C484.251 656.168 473.649 654.103 470.763 661.233L438.54 740.843C436.369 746.206 441.272 751.738 446.857 750.227L479.08 741.507C482.132 740.681 484.251 737.912 484.251 734.75Z" stroke="#082D45" stroke-width="10"/>
<path d="M437.893 224.908C435.316 232.638 430.182 239.089 424.99 249.725C423.675 252.42 424.332 255.208 425.291 257.165C429.223 265.189 439.792 269.428 447.551 275.579C455.709 282.047 458.619 293.891 454.954 303.636C454.59 304.604 454.18 305.478 453.731 306.247C452.752 308.194 452.113 310.112 447.58 314.026M475.688 224.908C473.112 232.638 467.978 239.089 462.786 249.725C461.47 252.42 462.127 255.208 463.086 257.165C467.019 265.189 477.587 269.428 485.346 275.579C493.505 282.047 496.414 293.891 492.749 303.636C492.385 304.604 491.975 305.478 491.526 306.247C490.548 308.194 489.908 310.112 485.375 314.026M510.848 224.908C508.19 232.638 502.895 239.089 497.54 249.725C496.183 252.42 496.86 255.208 497.849 257.165C501.906 265.189 512.806 269.428 520.809 275.579C529.153 281.993 532.268 294.003 528.386 303.785C528.025 304.694 527.622 305.518 527.183 306.247C526.174 308.194 525.514 310.112 520.838 314.026" stroke="#C97E3A" stroke-width="10" stroke-linejoin="round"/>
<path d="M421.401 301.199H550.969C558.044 301.199 563.779 306.935 563.779 314.009V385.989V392.692C563.779 396.965 561.957 401.036 558.769 403.881L546.699 414.658H585.157C593.857 414.658 595.769 426.889 587.484 429.544C586.732 429.785 585.947 429.908 585.157 429.908H386.811C386.049 429.908 385.291 429.794 384.562 429.569C376.203 426.989 378.063 414.658 386.811 414.658H424.091L411.607 403.896C408.301 401.047 406.401 396.899 406.401 392.535V316.199C406.401 307.915 413.116 301.199 421.401 301.199Z" fill="#C97E3A"/>
<path d="M546.699 414.658L558.769 403.881C561.957 401.036 563.779 396.965 563.779 392.692V385.989V314.009C563.779 306.935 558.044 301.199 550.969 301.199H421.401C413.116 301.199 406.401 307.915 406.401 316.199V392.535C406.401 396.899 408.301 401.047 411.607 403.896L424.091 414.658M546.699 414.658H424.091M546.699 414.658H585.157C593.857 414.658 595.769 426.889 587.484 429.544C586.732 429.785 585.947 429.908 585.157 429.908H386.811C386.049 429.908 385.291 429.794 384.562 429.569C376.203 426.989 378.063 414.658 386.811 414.658H424.091" stroke="#7B3A00" stroke-width="10"/>
<path d="M587.283 317.632H566.904C563.535 317.632 560.804 320.363 560.804 323.732C560.804 327.1 563.535 329.831 566.904 329.831H585.342C588.104 329.831 590.342 332.07 590.342 334.831V374.851C590.342 377.612 588.104 379.851 585.342 379.851H566.599C563.398 379.851 560.804 382.445 560.804 385.646C560.804 388.846 563.398 391.441 566.599 391.441H587.283C595.568 391.441 602.283 384.725 602.283 376.441V332.632C602.283 324.347 595.568 317.632 587.283 317.632Z" fill="#C97E3A" stroke="#7B3A00" stroke-width="10"/>
<defs>
<filter id="filter0_dddd_7_221" x="0" y="0" width="969.92" height="815.41" filterUnits="userSpaceOnUse" color-interpolation-filters="sRGB">
<feFlood flood-opacity="0" result="BackgroundImageFix"/>
<feColorMatrix in="SourceAlpha" type="matrix" values="0 0 0 0 0 0 0 0 0 0 0 0 0 0 0 0 0 0 127 0" result="hardAlpha"/>
<feOffset dx="10" dy="10"/>
<feGaussianBlur stdDeviation="2.5"/>
<feComposite in2="hardAlpha" operator="out"/>
<feColorMatrix type="matrix" values="0 0 0 0 0.937255 0 0 0 0 0.278431 0 0 0 0 0.435294 0 0 0 1 0"/>
<feBlend mode="normal" in2="BackgroundImageFix" result="effect1_dropShadow_7_221"/>
<feColorMatrix in="SourceAlpha" type="matrix" values="0 0 0 0 0 0 0 0 0 0 0 0 0 0 0 0 0 0 127 0" result="hardAlpha"/>
<feOffset dx="-10" dy="10"/>
<feGaussianBlur stdDeviation="2.5"/>
<feComposite in2="hardAlpha" operator="out"/>
<feColorMatrix type="matrix" values="0 0 0 0 1 0 0 0 0 0.843137 0 0 0 0 0 0 0 0 1 0"/>
<feBlend mode="normal" in2="effect1_dropShadow_7_221" result="effect2_dropShadow_7_221"/>
<feColorMatrix in="SourceAlpha" type="matrix" values="0 0 0 0 0 0 0 0 0 0 0 0 0 0 0 0 0 0 127 0" result="hardAlpha"/>
<feOffset dx="-10" dy="-10"/>
<feGaussianBlur stdDeviation="2.5"/>
<feComposite in2="hardAlpha" operator="out"/>
<feColorMatrix type="matrix" values="0 0 0 0 0.937255 0 0 0 0 0.278431 0 0 0 0 0.435294 0 0 0 1 0"/>
<feBlend mode="normal" in2="effect2_dropShadow_7_221" result="effect3_dropShadow_7_221"/>
<feColorMatrix in="SourceAlpha" type="matrix" values="0 0 0 0 0 0 0 0 0 0 0 0 0 0 0 0 0 0 127 0" result="hardAlpha"/>
<feOffset dx="10" dy="-10"/>
<feGaussianBlur stdDeviation="2.5"/>
<feComposite in2="hardAlpha" operator="out"/>
<feColorMatrix type="matrix" values="0 0 0 0 1 0 0 0 0 0.843137 0 0 0 0 0 0 0 0 1 0"/>
<feBlend mode="normal" in2="effect3_dropShadow_7_221" result="effect4_dropShadow_7_221"/>
<feBlend mode="normal" in="SourceGraphic" in2="effect4_dropShadow_7_221" result="shape"/>
</filter>
<filter id="filter1_i_7_221" x="156.251" y="131.908" width="667" height="776.161" filterUnits="userSpaceOnUse" color-interpolation-filters="sRGB">
<feFlood flood-opacity="0" result="BackgroundImageFix"/>
<feBlend mode="normal" in="SourceGraphic" in2="BackgroundImageFix" result="shape"/>
<feColorMatrix in="SourceAlpha" type="matrix" values="0 0 0 0 0 0 0 0 0 0 0 0 0 0 0 0 0 0 127 0" result="hardAlpha"/>
<feOffset dx="10" dy="10"/>
<feGaussianBlur stdDeviation="50"/>
<feComposite in2="hardAlpha" operator="arithmetic" k2="-1" k3="1"/>
<feColorMatrix type="matrix" values="0 0 0 0 0 0 0 0 0 0 0 0 0 0 0 0 0 0 0.25 0"/>
<feBlend mode="normal" in2="shape" result="effect1_innerShadow_7_221"/>
</filter>
<filter id="filter2_i_7_221" x="506.596" y="495.717" width="221.588" height="183.537" filterUnits="userSpaceOnUse" color-interpolation-filters="sRGB">
<feFlood flood-opacity="0" result="BackgroundImageFix"/>
<feBlend mode="normal" in="SourceGraphic" in2="BackgroundImageFix" result="shape"/>
<feColorMatrix in="SourceAlpha" type="matrix" values="0 0 0 0 0 0 0 0 0 0 0 0 0 0 0 0 0 0 127 0" result="hardAlpha"/>
<feOffset dx="10" dy="10"/>
<feGaussianBlur stdDeviation="37.5"/>
<feComposite in2="hardAlpha" operator="arithmetic" k2="-1" k3="1"/>
<feColorMatrix type="matrix" values="0 0 0 0 0 0 0 0 0 0 0 0 0 0 0 0 0 0 1 0"/>
<feBlend mode="normal" in2="shape" result="effect1_innerShadow_7_221"/>
</filter>
<filter id="filter3_i_7_221" x="479.251" y="651.204" width="67.164" height="114.331" filterUnits="userSpaceOnUse" color-interpolation-filters="sRGB">
<feFlood flood-opacity="0" result="BackgroundImageFix"/>
<feBlend mode="normal" in="SourceGraphic" in2="BackgroundImageFix" result="shape"/>
<feColorMatrix in="SourceAlpha" type="matrix" values="0 0 0 0 0 0 0 0 0 0 0 0 0 0 0 0 0 0 127 0" result="hardAlpha"/>
<feOffset dx="10" dy="10"/>
<feGaussianBlur stdDeviation="18.1"/>
<feComposite in2="hardAlpha" operator="arithmetic" k2="-1" k3="1"/>
<feColorMatrix type="matrix" values="0 0 0 0 0 0 0 0 0 0 0 0 0 0 0 0 0 0 1 0"/>
<feBlend mode="normal" in2="shape" result="effect1_innerShadow_7_221"/>
</filter>
<filter id="filter4_i_7_221" x="251.251" y="495.717" width="221.588" height="183.537" filterUnits="userSpaceOnUse" color-interpolation-filters="sRGB">
<feFlood flood-opacity="0" result="BackgroundImageFix"/>
<feBlend mode="normal" in="SourceGraphic" in2="BackgroundImageFix" result="shape"/>
<feColorMatrix in="SourceAlpha" type="matrix" values="0 0 0 0 0 0 0 0 0 0 0 0 0 0 0 0 0 0 127 0" result="hardAlpha"/>
<feOffset dx="10" dy="10"/>
<feGaussianBlur stdDeviation="37.5"/>
<feComposite in2="hardAlpha" operator="arithmetic" k2="-1" k3="1"/>
<feColorMatrix type="matrix" values="0 0 0 0 0 0 0 0 0 0 0 0 0 0 0 0 0 0 1 0"/>
<feBlend mode="normal" in2="shape" result="effect1_innerShadow_7_221"/>
</filter>
<filter id="filter5_i_7_221" x="433.004" y="651.845" width="66.2475" height="113.642" filterUnits="userSpaceOnUse" color-interpolation-filters="sRGB">
<feFlood flood-opacity="0" result="BackgroundImageFix"/>
<feBlend mode="normal" in="SourceGraphic" in2="BackgroundImageFix" result="shape"/>
<feColorMatrix in="SourceAlpha" type="matrix" values="0 0 0 0 0 0 0 0 0 0 0 0 0 0 0 0 0 0 127 0" result="hardAlpha"/>
<feOffset dx="10" dy="10"/>
<feGaussianBlur stdDeviation="18.1"/>
<feComposite in2="hardAlpha" operator="arithmetic" k2="-1" k3="1"/>
<feColorMatrix type="matrix" values="0 0 0 0 0 0 0 0 0 0 0 0 0 0 0 0 0 0 1 0"/>
<feBlend mode="normal" in2="shape" result="effect1_innerShadow_7_221"/>
</filter>
<linearGradient id="paint0_linear_7_221" x1="283.751" y1="210.414" x2="629.293" y2="857.941" gradientUnits="userSpaceOnUse">
<stop stop-color="#009DFF"/>
<stop offset="1" stop-color="#009DFF"/>
</linearGradient>
</defs>
</svg>
